HIERARCHY
ROOT hip
{
  OFFSET 0.00112043 5.09927 -9.65472
  CHANNELS 6 Xposition Yposition Zposition Zrotation Xrotation Yrotation
  JOINT abdomen
  {
    OFFSET 0 -1.186 -1.5018
    CHANNELS 3 Zrotation Xrotation Yrotation
    JOINT abdomen2
    {
      OFFSET 0 9.964 0.2134
      CHANNELS 3 Zrotation Xrotation Yrotation
      JOINT chest
      {
        OFFSET 0 13.134 -3.2573
        CHANNELS 3 Zrotation Xrotation Yrotation
        JOINT neck
        {
          OFFSET 0 20.686 -1.6905
          CHANNELS 3 Zrotation Xrotation Yrotation
          JOINT head
          {
            OFFSET 0 7.238 -0.1237
            CHANNELS 3 Zrotation Xrotation Yrotation
            End Site
            {
              OFFSET 0 0 0
            }
          }
        }
        JOINT lCollar
        {
          OFFSET 1.7069 20.075 5.0056
          CHANNELS 3 Zrotation Xrotation Yrotation
          JOINT lShldr
          {
            OFFSET 13.6458 -0.047 -4.849
            CHANNELS 3 Zrotation Xrotation Yrotation
            JOINT lForeArm
            {
              OFFSET 28.3255 -0.9759 2.2888
              CHANNELS 3 Zrotation Xrotation Yrotation
              JOINT lHand
              {
                OFFSET 22.1583 -0.53 10.8316
                CHANNELS 3 Zrotation Xrotation Yrotation
                JOINT lThumb1
                {
                  OFFSET 0.786 0.112 2.5817
                  CHANNELS 3 Zrotation Xrotation Yrotation
                  JOINT lThumb2
                  {
                    OFFSET 0.3601 -0.878 4.2331
                    CHANNELS 3 Zrotation Xrotation Yrotation
                    JOINT lThumb2_End
                    {
                      OFFSET 1.8127 -1.216 2.2227
                      CHANNELS 3 Zrotation Xrotation Yrotation
                      End Site
                      {
                        OFFSET 0.0181 -0.0122 0.0222
                      }
                    }
                  }
                }
                JOINT lCarpal1
                {
                  OFFSET 0.9571 1.114 1.7695
                  CHANNELS 3 Zrotation Xrotation Yrotation
                  JOINT lIndex1
                  {
                    OFFSET 4.1246 0.487 4.1451
                    CHANNELS 3 Zrotation Xrotation Yrotation
                    JOINT lIndex2
                    {
                      OFFSET 3.4052 -1.454 2.7682
                      CHANNELS 3 Zrotation Xrotation Yrotation
                      JOINT lIndex2_End
                      {
                        OFFSET 1.4531 -1.795 1.2713
                        CHANNELS 3 Zrotation Xrotation Yrotation
                        End Site
                        {
                          OFFSET 0.0145 -0.0179 0.0127
                        }
                      }
                    }
                  }
                  JOINT lMid1
                  {
                    OFFSET 5.6954 0.21 2.1184
                    CHANNELS 3 Zrotation Xrotation Yrotation
                    JOINT lMid2
                    {
                      OFFSET 3.9766 -1.54 2.3863
                      CHANNELS 3 Zrotation Xrotation Yrotation
                      JOINT lMid2_End
                      {
                        OFFSET 1.4042 -1.926 1.125
                        CHANNELS 3 Zrotation Xrotation Yrotation
                        End Site
                        {
                          OFFSET 0.014 -0.0193 0.0113
                        }
                      }
                    }
                  }
                }
                JOINT lCarpal2
                {
                  OFFSET 2.0956 0.66 -0.3894
                  CHANNELS 3 Zrotation Xrotation Yrotation
                  JOINT lRing1
                  {
                    OFFSET 5.0395 -0.09 2.4971
                    CHANNELS 3 Zrotation Xrotation Yrotation
                    JOINT lRing2
                    {
                      OFFSET 3.7921 -1.552 1.4806
                      CHANNELS 3 Zrotation Xrotation Yrotation
                      JOINT lRing2_End
                      {
                        OFFSET 1.4655 -1.808 0.9609
                        CHANNELS 3 Zrotation Xrotation Yrotation
                        End Site
                        {
                          OFFSET 0.0147 -0.0181 0.0096
                        }
                      }
                    }
                  }
                  JOINT lPinky1
                  {
                    OFFSET 4.9141 -1.269 0.3591
                    CHANNELS 3 Zrotation Xrotation Yrotation
                    JOINT lPinky2
                    {
                      OFFSET 3.1477 -1.685 0.8462
                      CHANNELS 3 Zrotation Xrotation Yrotation
                      JOINT lPinky2_End
                      {
                        OFFSET 0.8055 -1.585 0.7955
                        CHANNELS 3 Zrotation Xrotation Yrotation
                        End Site
                        {
                          OFFSET 0.0081 -0.0158 0.008
                        }
                      }
                    }
                  }
                }
              }
            }
          }
        }
        JOINT rCollar
        {
          OFFSET -1.7069 20.075 5.0056
          CHANNELS 3 Zrotation Xrotation Yrotation
          JOINT rShldr
          {
            OFFSET -13.6458 -0.047 -4.849
            CHANNELS 3 Zrotation Xrotation Yrotation
            JOINT rForeArm
            {
              OFFSET -28.3255 -0.9759 2.2888
              CHANNELS 3 Zrotation Xrotation Yrotation
              JOINT rHand
              {
                OFFSET -22.1583 -0.53 10.8316
                CHANNELS 3 Zrotation Xrotation Yrotation
                JOINT rThumb1
                {
                  OFFSET -0.786 0.112 2.5817
                  CHANNELS 3 Zrotation Xrotation Yrotation
                  JOINT rThumb2
                  {
                    OFFSET -0.3601 -0.878 4.2331
                    CHANNELS 3 Zrotation Xrotation Yrotation
                    JOINT rThumb2_End
                    {
                      OFFSET -1.8127 -1.216 2.2227
                      CHANNELS 3 Zrotation Xrotation Yrotation
                      End Site
                      {
                        OFFSET -0.0181 -0.0122 0.0222
                      }
                    }
                  }
                }
                JOINT rCarpal1
                {
                  OFFSET -0.9571 1.114 1.7695
                  CHANNELS 3 Zrotation Xrotation Yrotation
                  JOINT rIndex1
                  {
                    OFFSET -4.1246 0.487 4.1451
                    CHANNELS 3 Zrotation Xrotation Yrotation
                    JOINT rIndex2
                    {
                      OFFSET -3.4052 -1.454 2.7682
                      CHANNELS 3 Zrotation Xrotation Yrotation
                      JOINT rIndex2_End
                      {
                        OFFSET -1.4531 -1.795 1.2713
                        CHANNELS 3 Zrotation Xrotation Yrotation
                        End Site
                        {
                          OFFSET -0.0145 -0.018 0.0127
                        }
                      }
                    }
                  }
                  JOINT rMid1
                  {
                    OFFSET -5.6954 0.21 2.1184
                    CHANNELS 3 Zrotation Xrotation Yrotation
                    JOINT rMid2
                    {
                      OFFSET -3.9766 -1.54 2.3863
                      CHANNELS 3 Zrotation Xrotation Yrotation
                      JOINT rMid2_End
                      {
                        OFFSET -1.4042 -1.926 1.125
                        CHANNELS 3 Zrotation Xrotation Yrotation
                        End Site
                        {
                          OFFSET -0.014 -0.0193 0.0113
                        }
                      }
                    }
                  }
                }
                JOINT rCarpal2
                {
                  OFFSET -2.0956 0.66 -0.3894
                  CHANNELS 3 Zrotation Xrotation Yrotation
                  JOINT rRing1
                  {
                    OFFSET -5.0395 -0.09 2.4971
                    CHANNELS 3 Zrotation Xrotation Yrotation
                    JOINT rRing2
                    {
                      OFFSET -3.7921 -1.552 1.4806
                      CHANNELS 3 Zrotation Xrotation Yrotation
                      JOINT rRing2_End
                      {
                        OFFSET -1.4655 -1.808 0.9609
                        CHANNELS 3 Zrotation Xrotation Yrotation
                        End Site
                        {
                          OFFSET -0.0147 -0.0181 0.0096
                        }
                      }
                    }
                  }
                  JOINT rPinky1
                  {
                    OFFSET -4.9141 -1.269 0.3592
                    CHANNELS 3 Zrotation Xrotation Yrotation
                    JOINT rPinky2
                    {
                      OFFSET -3.1477 -1.685 0.8462
                      CHANNELS 3 Zrotation Xrotation Yrotation
                      JOINT rPinky2_End
                      {
                        OFFSET -0.8055 -1.585 0.7955
                        CHANNELS 3 Zrotation Xrotation Yrotation
                        End Site
                        {
                          OFFSET -0.0081 -0.0158 0.008
                        }
                      }
                    }
                  }
                }
              }
            }
          }
        }
      }
    }
  }
  JOINT lThigh
  {
    OFFSET 8.367 -8.2066 0.5982
    CHANNELS 3 Zrotation Xrotation Yrotation
    JOINT lShin
    {
      OFFSET 2.1923 -43.463 -0.4932
      CHANNELS 3 Zrotation Xrotation Yrotation
      JOINT lFoot
      {
        OFFSET 0.7333 -45.8593 -2.6451
        CHANNELS 3 Zrotation Xrotation Yrotation
        End Site
        {
          OFFSET 2.6618 -4.2699 12.3931
        }
      }
    }
  }
  JOINT rThigh
  {
    OFFSET -8.367 -8.2066 0.5982
    CHANNELS 3 Zrotation Xrotation Yrotation
    JOINT rShin
    {
      OFFSET -2.1923 -43.463 -0.4931
      CHANNELS 3 Zrotation Xrotation Yrotation
      JOINT rFoot
      {
        OFFSET -0.7333 -45.8593 -2.6451
        CHANNELS 3 Zrotation Xrotation Yrotation
        End Site
        {
          OFFSET -2.6618 -4.2699 12.3931
        }
      }
    }
  }
}
MOTION
Frames:	4
Frame Time:	0.0333333
0.0367551 -72.8566 23.1234 -0 -31.0028 -0 -0.331 17.6727 -0.0769198 -0.689018 35.3455 -0.043579 -0.689018 35.3455 -0.0435793 -13.5126 -14.8026 17.8083 14.8473 -41.667 19.1127 -6.05473 -10.5874 -8.68633 -78.9328 -18.0254 -76.7339 54.1772 64.8355 -90.894 -69.9191 14.3908 -17.3021 -3.18055e-015 -3.18055e-015 -0 6.36111e-015 -6.36111e-015 -9.54166e-015 4.66725e-007 -4.14404e-007 5.77161e-007 -0 0 1.59028e-015 -3.18055e-015 -3.18055e-015 -7.95139e-015 -1.76556e-031 -3.18055e-015 -3.18055e-015 4.66725e-007 -4.14404e-007 5.77161e-007 -3.18055e-015 -3.18055e-015 -7.95139e-015 -1.76556e-031 -3.18055e-015 -3.18055e-015 4.66725e-007 -4.14404e-007 5.77161e-007 -0 0 1.59028e-015 -3.18055e-015 -3.18055e-015 -7.95139e-015 -1.76556e-031 -3.18055e-015 -3.18055e-015 4.66725e-007 -4.14404e-007 5.77161e-007 -3.18055e-015 -3.18055e-015 -7.95139e-015 -1.76556e-031 -3.18055e-015 -3.18055e-015 4.66725e-007 -4.14404e-007 5.77161e-007 6.04447 -10.6 9.16415 78.9213 -17.9208 77.4086 -53.0238 63.8235 89.0398 69.9554 14.1988 17.2973 4.63106e-007 4.22037e-007 5.71059e-007 6.36111e-015 -6.36111e-015 -0 6.36111e-015 -6.36111e-015 -3.18055e-015 6.36111e-015 6.36111e-015 3.18055e-015 4.63106e-007 4.22037e-007 5.71059e-007 6.36111e-015 -6.36111e-015 1.59028e-015 1.76556e-031 -6.36111e-015 1.59028e-015 4.63106e-007 4.22037e-007 5.71059e-007 6.36111e-015 -6.36111e-015 1.59028e-015 1.76556e-031 -6.36111e-015 1.59028e-015 6.36111e-015 6.36111e-015 3.18055e-015 4.63106e-007 4.22037e-007 5.71059e-007 6.36111e-015 -6.36111e-015 1.59028e-015 1.76556e-031 -6.36111e-015 1.59028e-015 4.63106e-007 4.22037e-007 5.71059e-007 6.36111e-015 -6.36111e-015 1.59028e-015 1.76556e-031 -6.36111e-015 1.59028e-015 -163.647 -53.7378 -159.262 175.557 27.6366 -162.69 -12.2778 5.9539 -12.2817 167.236 -55.5936 162.833 -175.545 27.6478 162.777 11.2082 4.89908 13.5116 
0.0353876 -72.8561 23.1239 -0 -31.0028 -0 -0.331 17.6727 -0.0769198 -0.689018 35.3455 -0.043579 -0.689018 35.3455 -0.0435793 -13.5992 -15.0475 18.1358 14.8045 -41.2148 19.1438 -6.18616 -10.5308 -8.49173 -78.9539 -17.8523 -76.7677 54.1772 64.8355 -90.894 -69.9191 14.3907 -17.3021 -8.82781e-032 -3.18055e-015 -1.59028e-015 4.67554e-007 -4.13586e-007 5.77061e-007 4.67554e-007 -4.13586e-007 5.77061e-007 -3.18055e-015 -3.18055e-015 -3.18055e-015 9.54166e-015 3.18055e-015 -1.59028e-015 4.67554e-007 -4.13586e-007 5.77061e-007 4.67554e-007 -4.13586e-007 5.77061e-007 9.54166e-015 3.18055e-015 -1.59028e-015 4.67554e-007 -4.13586e-007 5.77061e-007 4.67554e-007 -4.13586e-007 5.77061e-007 -3.18055e-015 -3.18055e-015 -3.18055e-015 9.54166e-015 3.18055e-015 -1.59028e-015 4.67554e-007 -4.13586e-007 5.77061e-007 4.67554e-007 -4.13586e-007 5.77061e-007 9.54166e-015 3.18055e-015 -1.59028e-015 4.67554e-007 -4.13586e-007 5.77061e-007 4.67554e-007 -4.13586e-007 5.77061e-007 6.17739 -10.5411 8.95877 78.9436 -17.7474 77.4445 -53.0238 63.8235 89.0399 69.9554 14.1988 17.2973 1.94082e-007 -3.25926e-006 4.61332e-006 4.63963e-007 4.21211e-007 5.70936e-007 7.33844e-007 4.10168e-006 -3.47145e-006 3.18055e-015 0 3.18055e-015 1.94082e-007 -3.25926e-006 4.61332e-006 4.63963e-007 4.21211e-007 5.70936e-007 7.33844e-007 4.10168e-006 -3.47145e-006 1.94082e-007 -3.25926e-006 4.61332e-006 4.63963e-007 4.21211e-007 5.70936e-007 7.33844e-007 4.10168e-006 -3.47145e-006 3.18055e-015 0 3.18055e-015 1.94082e-007 -3.25926e-006 4.61332e-006 4.63963e-007 4.21211e-007 5.70936e-007 7.33844e-007 4.10168e-006 -3.47145e-006 1.94082e-007 -3.25926e-006 4.61332e-006 4.63963e-007 4.21211e-007 5.70936e-007 7.33844e-007 4.10168e-006 -3.47145e-006 -163.847 -53.7707 -159.452 175.556 27.6402 -162.688 -12.2582 5.95524 -12.2942 167.237 -55.5938 162.83 -175.545 27.6466 162.775 11.2061 4.89721 13.5107 
0.0341571 -72.8557 23.1244 -0 -31.0028 -0 -0.331 17.6727 -0.0769198 -0.689018 35.3455 -0.043579 -0.689018 35.3455 -0.0435793 -13.6761 -15.2682 18.43 14.7661 -40.8083 19.172 -6.30458 -10.4804 -8.31648 -78.9728 -17.6966 -76.798 54.1772 64.8355 -90.894 -69.9191 14.3907 -17.3021 -9.36595e-007 8.25697e-007 -1.15394e-006 -4.68298e-007 4.12848e-007 -5.76971e-007 -0 -3.18055e-015 -0 -6.36111e-015 -3.18055e-015 4.77083e-015 -9.36595e-007 8.25697e-007 -1.15394e-006 -4.68298e-007 4.12848e-007 -5.76971e-007 3.18055e-015 3.18055e-015 -0 -9.36595e-007 8.25697e-007 -1.15394e-006 -4.68298e-007 4.12848e-007 -5.76971e-007 3.18055e-015 3.18055e-015 -0 -6.36111e-015 -3.18055e-015 4.77083e-015 -9.36595e-007 8.25697e-007 -1.15394e-006 -4.68298e-007 4.12848e-007 -5.76971e-007 3.18055e-015 3.18055e-015 -0 -9.36595e-007 8.25697e-007 -1.15394e-006 -4.68298e-007 4.12848e-007 -5.76971e-007 3.18055e-015 3.18055e-015 -0 6.29717 -10.4886 8.77381 78.9636 -17.5912 77.4767 -53.0238 63.8235 89.0399 69.9554 14.1988 17.2973 -4.64731e-007 -4.20465e-007 -5.70827e-007 -4.64731e-007 -4.20465e-007 -5.70827e-007 -4.64731e-007 -4.20465e-007 -5.70827e-007 -3.18055e-015 -3.18055e-015 4.77083e-015 -4.64731e-007 -4.20465e-007 -5.70827e-007 -4.64731e-007 -4.20465e-007 -5.70827e-007 -4.64731e-007 -4.20465e-007 -5.70827e-007 -4.64731e-007 -4.20465e-007 -5.70827e-007 -4.64731e-007 -4.20465e-007 -5.70827e-007 -4.64731e-007 -4.20465e-007 -5.70827e-007 -3.18055e-015 -3.18055e-015 4.77083e-015 -4.64731e-007 -4.20465e-007 -5.70827e-007 -4.64731e-007 -4.20465e-007 -5.70827e-007 -4.64731e-007 -4.20465e-007 -5.70827e-007 -4.64731e-007 -4.20465e-007 -5.70827e-007 -4.64731e-007 -4.20465e-007 -5.70827e-007 -4.64731e-007 -4.20465e-007 -5.70827e-007 -164.027 -53.8005 -159.623 175.555 27.6439 -162.687 -12.2387 5.95626 -12.3069 167.238 -55.5949 162.827 -175.545 27.6464 162.774 11.2042 4.89556 13.5098 
0.0329281 -72.8552 23.1249 -0 -31.0028 -0 -0.331 17.6727 -0.0769198 -0.689018 35.3455 -0.043579 -0.689018 35.3455 -0.0435793 -13.7519 -15.4894 18.7245 14.7277 -40.4016 19.2003 -6.42315 -10.4303 -8.14114 -78.9915 -17.5408 -76.8283 54.1772 64.8355 -90.894 -69.9191 14.3908 -17.3021 -9.3808e-007 8.24217e-007 -1.15376e-006 -4.6904e-007 4.12109e-007 -5.76882e-007 -9.3808e-007 8.24217e-007 -1.15376e-006 0 0 -0 -9.3808e-007 8.24217e-007 -1.15376e-006 -4.6904e-007 4.12109e-007 -5.76882e-007 -9.3808e-007 8.24217e-007 -1.15376e-006 -9.3808e-007 8.24217e-007 -1.15376e-006 -4.6904e-007 4.12109e-007 -5.76882e-007 -9.3808e-007 8.24217e-007 -1.15376e-006 0 0 -0 -9.3808e-007 8.24217e-007 -1.15376e-006 -4.6904e-007 4.12109e-007 -5.76882e-007 -9.3808e-007 8.24217e-007 -1.15376e-006 -9.3808e-007 8.24217e-007 -1.15376e-006 -4.6904e-007 4.12109e-007 -5.76882e-007 -9.3808e-007 8.24217e-007 -1.15376e-006 6.41711 -10.4365 8.58876 78.9835 -17.435 77.5088 -53.0238 63.8235 89.0399 69.9554 14.1988 17.2973 4.65498e-007 4.19718e-007 5.70718e-007 -4.65498e-007 -4.19718e-007 -5.70718e-007 -3.18055e-015 9.54166e-015 -1.59028e-015 3.18055e-015 6.36111e-015 -0 4.65498e-007 4.19718e-007 5.70718e-007 -4.65498e-007 -4.19718e-007 -5.70718e-007 -6.36111e-015 -3.18055e-015 -7.95139e-015 4.65498e-007 4.19718e-007 5.70718e-007 -4.65498e-007 -4.19718e-007 -5.70718e-007 -6.36111e-015 -3.18055e-015 -7.95139e-015 3.18055e-015 6.36111e-015 -0 4.65498e-007 4.19718e-007 5.70718e-007 -4.65498e-007 -4.19718e-007 -5.70718e-007 -6.36111e-015 -3.18055e-015 -7.95139e-015 4.65498e-007 4.19718e-007 5.70718e-007 -4.65498e-007 -4.19718e-007 -5.70718e-007 -6.36111e-015 -3.18055e-015 -7.95139e-015 -164.207 -53.8292 -159.795 175.554 27.6467 -162.686 -12.2193 5.95723 -12.3196 167.239 -55.5957 162.824 -175.545 27.6459 162.772 11.2023 4.89384 13.509 
